<svg xmlns="http://www.w3.org/2000/svg" viewBox="0 0 100 100">
  <rect width="100" height="100" rx="22" fill="#013856"/>
  <g transform="rotate(45 50 50)" fill="none" stroke="url(#g)" stroke-width="4.2" stroke-linecap="round">
    <path d="M30 26 C27 42 33 58 30 74"/>
    <path d="M42 26 C39 42 45 58 42 74"/>
    <path d="M50 26 C47 42 53 58 50 74"/>
    <path d="M58 26 C55 42 61 58 58 74"/>
    <path d="M70 26 C67 42 73 58 70 74"/>
    <path d="M26 30 C42 27 58 33 74 30"/>
    <path d="M26 42 C42 39 58 45 74 42"/>
    <path d="M26 50 C42 47 58 53 74 50"/>
    <path d="M26 58 C42 55 58 61 74 58"/>
    <path d="M26 70 C42 67 58 73 74 70"/>
  </g>
  <defs>
    <linearGradient id="g" x1="20" y1="20" x2="80" y2="80" gradientUnits="userSpaceOnUse">
      <stop stop-color="#4FB4D6"/>
      <stop offset="1" stop-color="#1B6B96"/>
    </linearGradient>
  </defs>
</svg>
